<?xml version="1.0" encoding="UTF-8"?>
<svg xmlns="http://www.w3.org/2000/svg" xmlns:xlink="http://www.w3.org/1999/xlink" width="150pt" height="150pt" viewBox="0 0 150 150" version="1.1">
<g id="surface1">
<path style=" stroke:none;fill-rule:nonzero;fill:rgb(0%,50.196078%,23.921569%);fill-opacity:1;" d="M 75.070312 150 C 33.804688 149.992188 0.0390625 116.238281 0.0390625 75.011719 C 0.0390625 33.785156 33.828125 0 75.136719 0 C 116.292969 0 150.03125 33.84375 149.960938 75.085938 C 149.894531 116.328125 116.214844 150 75.070312 150 Z M 3.984375 74.996094 C 3.917969 113.835938 35.984375 145.851562 74.996094 145.933594 C 113.851562 146.015625 145.933594 114.066406 145.992188 75.234375 C 146.0625 36.074219 114.3125 4.023438 75.191406 3.976562 C 36.066406 3.933594 4.105469 35.789062 3.984375 74.996094 Z M 3.984375 74.996094 "/>
<path style=" stroke:none;fill-rule:nonzero;fill:rgb(0%,50.196078%,23.921569%);fill-opacity:1;" d="M 51 101.523438 C 53.230469 99.308594 56.097656 97.851562 59.203125 97.359375 C 61.042969 96.984375 62.917969 96.773438 64.796875 96.730469 C 81.722656 96.664062 98.648438 96.664062 115.574219 96.640625 L 137.042969 96.578125 L 138.234375 96.578125 L 136.855469 100.421875 L 63.554688 100.421875 C 58.648438 100.421875 54.566406 102.113281 51.570312 106.097656 C 51.257812 106.554688 51.082031 107.089844 51.070312 107.640625 C 51 109.429688 51.070312 111.222656 51.070312 113.0625 C 51.242188 113.011719 51.34375 113.011719 51.398438 112.964844 C 54.070312 110.335938 57.433594 109.222656 61.023438 108.792969 C 63.816406 108.515625 66.625 108.394531 69.433594 108.429688 C 90.28125 108.382812 111.132812 108.359375 131.980469 108.359375 L 133.097656 108.359375 C 132.257812 109.664062 131.53125 110.847656 130.722656 111.976562 C 130.59375 112.164062 130.125 112.15625 129.808594 112.15625 L 64.046875 112.15625 C 62.070312 112.105469 60.097656 112.382812 58.214844 112.972656 C 55.496094 113.871094 53.136719 115.609375 51.472656 117.9375 C 51.210938 118.324219 51.0625 118.777344 51.046875 119.242188 C 51 120.890625 51.046875 122.539062 51.046875 124.261719 C 51.175781 124.238281 51.296875 124.195312 51.414062 124.132812 C 53.929688 121.683594 57.066406 120.597656 60.398438 120.074219 C 61.984375 119.824219 63.585938 119.691406 65.191406 119.675781 C 84.695312 119.601562 104.195312 119.550781 123.691406 119.527344 L 124.910156 119.527344 C 123.636719 120.867188 122.515625 122.089844 121.339844 123.269531 C 121.152344 123.449219 120.71875 123.414062 120.402344 123.414062 L 79.160156 123.414062 C 73.617188 123.414062 68.078125 123.324219 62.535156 123.414062 C 57.871094 123.355469 53.527344 125.765625 51.105469 129.75 C 50.296875 131.058594 49.953125 132.632812 49.390625 134.054688 C 49.257812 134.40625 49.128906 134.753906 48.949219 135.253906 C 48.613281 134.117188 48.363281 133.132812 48.042969 132.183594 C 45.984375 126.191406 41.078125 122.910156 34.742188 123.300781 C 33.011719 123.40625 31.265625 123.390625 29.5 123.414062 C 29.230469 123.421875 28.96875 123.339844 28.75 123.179688 C 27.523438 122.089844 26.316406 120.972656 25.109375 119.863281 L 25.351562 119.550781 L 31.125 119.550781 C 33.609375 119.609375 36.105469 119.609375 38.570312 119.839844 C 42.015625 120.066406 45.140625 121.9375 46.957031 124.875 L 47.195312 125.242188 C 47.269531 124.996094 47.324219 124.746094 47.355469 124.492188 C 47.355469 123.382812 47.285156 122.246094 47.355469 121.175781 C 47.421875 119.914062 47.070312 118.664062 46.351562 117.625 C 44.34375 114.152344 40.625 112.019531 36.613281 112.046875 C 31.371094 111.96875 26.070312 112.105469 20.804688 112.21875 C 20.003906 112.324219 19.226562 111.886719 18.902344 111.144531 C 18.476562 110.328125 17.945312 109.582031 17.40625 108.703125 L 25.074219 108.703125 C 28.667969 108.703125 32.261719 108.703125 35.851562 108.839844 C 39.230469 108.859375 42.515625 109.980469 45.203125 112.03125 C 45.953125 112.621094 46.628906 113.289062 47.332031 113.917969 C 47.359375 113.667969 47.375 113.417969 47.375 113.167969 C 47.375 111.851562 47.316406 110.523438 47.375 109.214844 C 47.429688 108.039062 47.113281 106.878906 46.46875 105.894531 C 44.402344 102.390625 41.339844 100.300781 37.296875 100.144531 C 32.210938 99.949219 27.117188 100.101562 22.03125 100.144531 C 19.398438 100.144531 16.789062 100.144531 14.125 100.21875 C 13.613281 100.304688 13.121094 99.976562 13 99.472656 C 12.648438 98.488281 12.214844 97.539062 11.742188 96.398438 L 12.875 96.398438 C 20.363281 96.398438 27.792969 96.265625 35.25 96.453125 C 39.78125 96.566406 44 97.851562 46.957031 101.695312 C 47.078125 101.789062 47.203125 101.875 47.339844 101.949219 L 47.339844 100.617188 C 47.339844 72.585938 47.355469 44.550781 47.390625 16.507812 C 47.390625 15.523438 47.601562 14.902344 48.550781 14.507812 C 49.382812 14.125 50.1875 13.691406 50.964844 13.210938 Z M 51 101.523438 "/>
<path style=" stroke:none;fill-rule:nonzero;fill:rgb(0%,50.196078%,23.921569%);fill-opacity:1;" d="M 59.859375 84.28125 L 58.675781 84.171875 L 58.675781 82.222656 L 59.808594 82.074219 L 59.808594 76.785156 C 62.445312 76.90625 64.976562 76.785156 67.417969 77.199219 C 69.859375 77.609375 70.960938 79.488281 71.238281 81.765625 C 71.40625 83.101562 71.339844 84.453125 71.042969 85.765625 C 70.511719 88.058594 69.019531 89.621094 66.546875 89.808594 C 64.355469 89.980469 62.136719 89.808594 59.808594 89.808594 Z M 62.691406 87.621094 C 64.578125 87.472656 66.585938 88.167969 67.933594 86.230469 C 68.898438 84.828125 68.839844 81.738281 67.777344 80.425781 C 66.414062 78.753906 64.519531 79.207031 62.722656 79.210938 L 62.722656 82.148438 L 65.53125 82.148438 L 65.53125 84.207031 L 62.691406 84.207031 Z M 62.691406 87.621094 "/>
<path style=" stroke:none;fill-rule:nonzero;fill:rgb(0%,50.196078%,23.921569%);fill-opacity:1;" d="M 96.820312 88.320312 L 98.390625 89.816406 L 97.164062 91.164062 C 96.773438 90.8125 96.414062 90.527344 96.09375 90.183594 C 95.699219 89.691406 95.015625 89.542969 94.453125 89.832031 C 90.804688 91.105469 86.695312 89.570312 85.886719 85.167969 C 85.65625 83.753906 85.726562 82.308594 86.09375 80.925781 C 86.902344 77.871094 89.691406 76.210938 92.949219 76.582031 C 95.949219 76.921875 98.273438 79.371094 98.460938 82.386719 C 98.765625 84.507812 98.167969 86.65625 96.820312 88.320312 Z M 94.8125 86.460938 C 96.085938 84.964844 96.011719 81.648438 94.714844 80.050781 C 93.433594 78.605469 91.226562 78.472656 89.78125 79.75 C 89.699219 79.820312 89.625 79.890625 89.554688 79.96875 C 88.101562 81.640625 88.058594 85.210938 89.554688 86.835938 C 90.46875 87.871094 91.945312 88.191406 93.210938 87.636719 L 92.160156 86.523438 L 93.375 85.226562 Z M 94.8125 86.460938 "/>
<path style=" stroke:none;fill-rule:nonzero;fill:rgb(0%,50.196078%,23.921569%);fill-opacity:1;" d="M 137.898438 89.960938 C 137.085938 90.003906 136.269531 90.003906 135.457031 89.960938 C 135.179688 89.960938 134.886719 89.578125 134.707031 89.308594 C 133.210938 86.949219 131.765625 84.582031 130.296875 82.214844 C 130.109375 81.894531 129.855469 81.617188 129.546875 81.40625 L 129.546875 89.871094 L 126.984375 89.871094 L 126.984375 76.90625 L 129.515625 76.90625 C 129.726562 76.90625 129.953125 77.273438 130.101562 77.511719 C 131.597656 79.917969 133.097656 82.335938 134.59375 84.746094 C 134.769531 85.050781 135.03125 85.292969 135.34375 85.445312 L 135.34375 76.949219 L 137.882812 76.949219 Z M 137.898438 89.960938 "/>
<path style=" stroke:none;fill-rule:nonzero;fill:rgb(0%,50.196078%,23.921569%);fill-opacity:1;" d="M 111.3125 81.121094 C 110.636719 81.121094 109.957031 81.160156 109.273438 81.121094 C 109.03125 81.082031 108.824219 80.921875 108.71875 80.695312 C 108.023438 78.375 104.527344 78.449219 103.269531 80.222656 C 102.105469 82.191406 102.105469 84.632812 103.269531 86.597656 C 104.089844 87.71875 105.515625 88.226562 106.863281 87.871094 C 107.941406 87.753906 108.824219 86.960938 109.058594 85.902344 C 109.125 85.601562 109.167969 85.300781 109.191406 84.996094 L 106.308594 84.996094 L 106.308594 83.015625 L 111.671875 83.015625 L 111.671875 89.945312 L 110.007812 89.945312 L 109.6875 88.8125 C 108.792969 89.375 107.835938 89.824219 106.832031 90.148438 C 103.554688 90.777344 100.386719 88.636719 99.746094 85.359375 C 99.6875 85.03125 99.652344 84.695312 99.644531 84.359375 C 99.5625 83.167969 99.6875 81.976562 100.011719 80.832031 C 100.621094 78.949219 102.089844 77.472656 103.964844 76.851562 C 105.84375 76.230469 107.902344 76.539062 109.515625 77.683594 C 110.671875 78.4375 111.355469 79.742188 111.3125 81.121094 Z M 111.3125 81.121094 "/>
<path style=" stroke:none;fill-rule:nonzero;fill:rgb(0%,50.196078%,23.921569%);fill-opacity:1;" d="M 81.226562 76.9375 L 84.011719 76.9375 L 84.011719 89.90625 L 81.316406 89.90625 L 81.316406 84.328125 L 75.859375 84.328125 L 75.859375 89.90625 L 73.0625 89.90625 L 73.0625 76.972656 L 75.796875 76.972656 L 75.796875 81.863281 L 81.226562 81.863281 Z M 81.226562 76.9375 "/>
<path style=" stroke:none;fill-rule:nonzero;fill:rgb(0%,50.196078%,23.921569%);fill-opacity:1;" d="M 113.789062 76.949219 L 116.472656 76.949219 L 116.472656 81.894531 L 121.878906 81.894531 L 121.878906 76.964844 L 124.65625 76.964844 L 124.65625 89.914062 L 121.929688 89.914062 L 121.929688 84.3125 L 116.539062 84.3125 L 116.539062 89.871094 L 113.789062 89.871094 Z M 113.789062 76.949219 "/>
</g>
</svg>
